<?xml version="1.0" encoding="UTF-8" standalone="no"?>
<!DOCTYPE svg PUBLIC "-//W3C//DTD SVG 1.1//EN" "http://www.w3.org/Graphics/SVG/1.1/DTD/svg11.dtd">
<svg version="1.1" xmlns="http://www.w3.org/2000/svg" xmlns:xlink="http://www.w3.org/1999/xlink" preserveAspectRatio="xMidYMid meet" viewBox="0 0 640 640" width="640" height="640"><defs><path d="M107.5 248.95L532.5 248.95L532.5 438.83L107.5 438.83L107.5 248.95Z" id="e2vzatnads"></path><path d="M566.43 206.58C566.43 245.02 456.01 276.23 320 276.23C183.99 276.23 73.57 245.02 73.57 206.58C73.57 168.15 183.99 136.94 320 136.94C456.01 136.94 566.43 168.15 566.43 206.58Z" id="d1Lki3PgC"></path><path d="M620 78.46L294.29 195.78L573.2 265.55L620 78.46Z" id="a1oSh5aU7Z"></path><path d="M560.22 184.91L446 207.53L493.93 449.5L608.15 426.88L560.22 184.91Z" id="b2QL09EBeg"></path><path d="M76.97 189.71L191.19 212.33L144.38 448.64L30.16 426.02L76.97 189.71Z" id="aboRHfO4i"></path><path d="M20 78.46L345.71 195.78L66.8 265.55L20 78.46Z" id="hchWpRghn"></path><path d="M255.71 303.46C255.71 337.95 228.11 365.96 194.11 365.96C160.11 365.96 132.5 337.95 132.5 303.46C132.5 268.96 160.11 240.96 194.11 240.96C228.11 240.96 255.71 268.96 255.71 303.46Z" id="cqreF0rV"></path><path d="M464.36 493.21L608.71 424.87L319.99 424.87L31.29 424.87L175.63 493.21L319.99 561.54L464.36 493.21Z" id="k2s9VpacoQ"></path><path d="M99.42 137.52L153.84 162.81L114.36 195.63L74.89 228.46L59.94 170.34L45 112.22L99.42 137.52Z" id="agyCFMkRS"></path><path d="M540.58 137.52L486.16 162.81L525.64 195.63L565.11 228.46L580.06 170.34L595 112.22L540.58 137.52Z" id="a4lxyskDaw"></path><path d="M338.75 415.96L357.5 384.71L320 384.71L282.5 384.71L301.25 415.96L320 447.21L338.75 415.96Z" id="gPyyrGuue"></path><path d="M240.98 307.92C240.98 331.08 222.28 349.89 199.24 349.89C176.2 349.89 157.5 331.08 157.5 307.92C157.5 284.76 176.2 265.96 199.24 265.96C222.28 265.96 240.98 284.76 240.98 307.92Z" id="a3Sk0JzoI"></path><path d="M507.5 303.46C507.5 337.95 479.89 365.96 445.89 365.96C411.89 365.96 384.29 337.95 384.29 303.46C384.29 268.96 411.89 240.96 445.89 240.96C479.89 240.96 507.5 268.96 507.5 303.46Z" id="b2HPPp6RJQ"></path><path d="M484.73 307.92C484.73 331.08 466.03 349.89 442.99 349.89C419.95 349.89 401.25 331.08 401.25 307.92C401.25 284.76 419.95 265.96 442.99 265.96C466.03 265.96 484.73 284.76 484.73 307.92Z" id="bl0GldmJp"></path></defs><g><g><g><use xlink:href="#e2vzatnads" opacity="1" fill="#000000" fill-opacity="1"></use></g><g><use xlink:href="#d1Lki3PgC" opacity="1" fill="#000000" fill-opacity="1"></use></g><g><use xlink:href="#a1oSh5aU7Z" opacity="1" fill="#000000" fill-opacity="1"></use></g><g><use xlink:href="#b2QL09EBeg" opacity="1" fill="#000000" fill-opacity="1"></use></g><g><use xlink:href="#aboRHfO4i" opacity="1" fill="#000000" fill-opacity="1"></use></g><g><use xlink:href="#hchWpRghn" opacity="1" fill="#000000" fill-opacity="1"></use></g><g><use xlink:href="#cqreF0rV" opacity="1" fill="#fff000" fill-opacity="1"></use></g><g><use xlink:href="#k2s9VpacoQ" opacity="1" fill="#000000" fill-opacity="1"></use></g><g><use xlink:href="#agyCFMkRS" opacity="1" fill="#909090" fill-opacity="1"></use></g><g><use xlink:href="#a4lxyskDaw" opacity="1" fill="#909090" fill-opacity="1"></use></g><g><use xlink:href="#gPyyrGuue" opacity="1" fill="#909090" fill-opacity="1"></use></g><g><use xlink:href="#a3Sk0JzoI" opacity="1" fill="#000000" fill-opacity="1"></use></g><g><use xlink:href="#b2HPPp6RJQ" opacity="1" fill="#fff000" fill-opacity="1"></use></g><g><use xlink:href="#bl0GldmJp" opacity="1" fill="#000000" fill-opacity="1"></use></g></g></g></svg>