<?xml version="1.0" encoding="UTF-8" standalone="no"?>
<!DOCTYPE svg PUBLIC "-//W3C//DTD SVG 1.1//EN" "http://www.w3.org/Graphics/SVG/1.1/DTD/svg11.dtd">
<svg version="1.1" xmlns="http://www.w3.org/2000/svg" xmlns:xlink="http://www.w3.org/1999/xlink" preserveAspectRatio="xMidYMid meet" viewBox="0 0 640 640" width="640" height="640"><defs><path d="M180 286.39L520 286.39L520 438.3L180 438.3L180 286.39Z" id="ewePJB7sI"></path><path d="M547.14 252.5C547.14 283.25 458.81 308.21 350 308.21C241.19 308.21 152.86 283.25 152.86 252.5C152.86 221.75 241.19 196.79 350 196.79C458.81 196.79 547.14 221.75 547.14 252.5Z" id="e7ONXtk06"></path><path d="M590 150L329.43 243.86L552.56 299.67L590 150Z" id="b2iS77ulm"></path><path d="M542.18 235.16L450.8 253.26L489.14 446.83L580.52 428.74L542.18 235.16Z" id="c3gtXqDJYz"></path><path d="M155.58 239L246.95 257.1L209.51 446.15L118.13 428.05L155.58 239Z" id="b13EreLGJ9"></path><path d="M110 150L370.57 243.86L147.44 299.67L110 150Z" id="blUfYdzFE"></path><path d="M298.57 330C298.57 357.6 276.49 380 249.29 380C222.08 380 200 357.6 200 330C200 302.4 222.08 280 249.29 280C276.49 280 298.57 302.4 298.57 330Z" id="bFBDuvwsx"></path><path d="M465.49 481.8L580.97 427.13L350 427.13L119.03 427.13L234.5 481.8L350 536.47L465.49 481.8Z" id="aV2jwNf5c"></path><path d="M173.54 197.24L217.07 217.48L185.49 243.74L153.91 270L141.95 223.51L130 177.01L173.54 197.24Z" id="b4bFNl935O"></path><path d="M526.46 197.24L482.93 217.48L514.51 243.74L546.09 270L558.05 223.51L570 177.01L526.46 197.24Z" id="a19R1i1UTu"></path><path d="M365 420L380 395L350 395L320 395L335 420L350 445L365 420Z" id="ajXtLl7l3"></path><path d="M286.79 333.57C286.79 352.1 271.82 367.14 253.39 367.14C234.96 367.14 220 352.1 220 333.57C220 315.04 234.96 300 253.39 300C271.82 300 286.79 315.04 286.79 333.57Z" id="a58j9nl0t"></path><path d="M500 330C500 357.6 477.92 380 450.71 380C423.51 380 401.43 357.6 401.43 330C401.43 302.4 423.51 280 450.71 280C477.92 280 500 302.4 500 330Z" id="c3PdMfV2p"></path><path d="M481.79 333.57C481.79 352.1 466.82 367.14 448.39 367.14C429.96 367.14 415 352.1 415 333.57C415 315.04 429.96 300 448.39 300C466.82 300 481.79 315.04 481.79 333.57Z" id="aFv9kLOO"></path></defs><g><g><g><use xlink:href="#ewePJB7sI" opacity="1" fill="#000000" fill-opacity="1"></use></g><g><use xlink:href="#e7ONXtk06" opacity="1" fill="#000000" fill-opacity="1"></use></g><g><use xlink:href="#b2iS77ulm" opacity="1" fill="#000000" fill-opacity="1"></use></g><g><use xlink:href="#c3gtXqDJYz" opacity="1" fill="#000000" fill-opacity="1"></use></g><g><use xlink:href="#b13EreLGJ9" opacity="1" fill="#000000" fill-opacity="1"></use></g><g><use xlink:href="#blUfYdzFE" opacity="1" fill="#000000" fill-opacity="1"></use></g><g><use xlink:href="#bFBDuvwsx" opacity="1" fill="#fff000" fill-opacity="1"></use></g><g><use xlink:href="#aV2jwNf5c" opacity="1" fill="#000000" fill-opacity="1"></use></g><g><use xlink:href="#b4bFNl935O" opacity="1" fill="#909090" fill-opacity="1"></use></g><g><use xlink:href="#a19R1i1UTu" opacity="1" fill="#909090" fill-opacity="1"></use></g><g><use xlink:href="#ajXtLl7l3" opacity="1" fill="#909090" fill-opacity="1"></use></g><g><use xlink:href="#a58j9nl0t" opacity="1" fill="#000000" fill-opacity="1"></use></g><g><use xlink:href="#c3PdMfV2p" opacity="1" fill="#fff000" fill-opacity="1"></use></g><g><use xlink:href="#aFv9kLOO" opacity="1" fill="#000000" fill-opacity="1"></use></g></g></g></svg>