<?xml version="1.0" encoding="UTF-8" standalone="no"?>
<!DOCTYPE svg PUBLIC "-//W3C//DTD SVG 1.1//EN" "http://www.w3.org/Graphics/SVG/1.1/DTD/svg11.dtd">
<svg version="1.1" xmlns="http://www.w3.org/2000/svg" xmlns:xlink="http://www.w3.org/1999/xlink" preserveAspectRatio="xMidYMid meet" viewBox="0 0 640 640" width="640" height="640"><defs><path d="M180 286.39L520 286.39L520 438.3L180 438.3L180 286.39Z" id="b7rkcJBCgp"></path><path d="M547.14 252.5C547.14 283.25 458.81 308.21 350 308.21C241.19 308.21 152.86 283.25 152.86 252.5C152.86 221.75 241.19 196.79 350 196.79C458.81 196.79 547.14 221.75 547.14 252.5Z" id="g11BFBk86u"></path><path d="M542.18 235.16L450.8 253.26L489.14 446.83L580.52 428.74L542.18 235.16Z" id="f1aYxSHgER"></path><path d="M155.58 239L246.95 257.1L209.51 446.15L118.13 428.05L155.58 239Z" id="a78dD9Lrzi"></path><path d="M110 150L370.57 243.86L147.44 299.67L110 150Z" id="dM2AJYPLD"></path><path d="M298.57 330C298.57 357.6 276.49 380 249.29 380C222.08 380 200 357.6 200 330C200 302.4 222.08 280 249.29 280C276.49 280 298.57 302.4 298.57 330Z" id="aulVmixiF"></path><path d="M465.49 481.8L580.97 427.13L350 427.13L119.03 427.13L234.5 481.8L350 536.47L465.49 481.8Z" id="b3EqMyzPa"></path><path d="M173.54 197.24L217.07 217.48L185.49 243.74L153.91 270L141.95 223.51L130 177.01L173.54 197.24Z" id="iW6oEBdr0"></path><path d="M590 150L329.43 243.86L552.56 299.67L590 150Z" id="bekbP0ynw"></path><path d="M526.46 197.24L482.93 217.48L514.51 243.74L546.09 270L558.05 223.51L570 177.01L526.46 197.24Z" id="cSzML0K0C"></path><path d="M365 420L380 395L350 395L320 395L335 420L350 445L365 420Z" id="e2AnvvM1jA"></path><path d="M286.79 333.57C286.79 352.1 271.82 367.14 253.39 367.14C234.96 367.14 220 352.1 220 333.57C220 315.04 234.96 300 253.39 300C271.82 300 286.79 315.04 286.79 333.57Z" id="j13IIpcheC"></path><path d="M500 330C500 357.6 477.92 380 450.71 380C423.51 380 401.43 357.6 401.43 330C401.43 302.4 423.51 280 450.71 280C477.92 280 500 302.4 500 330Z" id="ayFFQ8tj3"></path><path d="M481.79 333.57C481.79 352.1 466.82 367.14 448.39 367.14C429.96 367.14 415 352.1 415 333.57C415 315.04 429.96 300 448.39 300C466.82 300 481.79 315.04 481.79 333.57Z" id="f2a7r0n6YM"></path></defs><g><g><g><use xlink:href="#b7rkcJBCgp" opacity="1" fill="#000000" fill-opacity="1"></use></g><g><use xlink:href="#g11BFBk86u" opacity="1" fill="#000000" fill-opacity="1"></use></g><g><use xlink:href="#f1aYxSHgER" opacity="1" fill="#000000" fill-opacity="1"></use></g><g><use xlink:href="#a78dD9Lrzi" opacity="1" fill="#000000" fill-opacity="1"></use></g><g><use xlink:href="#dM2AJYPLD" opacity="1" fill="#000000" fill-opacity="1"></use></g><g><use xlink:href="#aulVmixiF" opacity="1" fill="#fff000" fill-opacity="1"></use></g><g><use xlink:href="#b3EqMyzPa" opacity="1" fill="#000000" fill-opacity="1"></use></g><g><use xlink:href="#iW6oEBdr0" opacity="1" fill="#909090" fill-opacity="1"></use></g><g><use xlink:href="#bekbP0ynw" opacity="1" fill="#000000" fill-opacity="1"></use></g><g><use xlink:href="#cSzML0K0C" opacity="1" fill="#909090" fill-opacity="1"></use></g><g><use xlink:href="#e2AnvvM1jA" opacity="1" fill="#909090" fill-opacity="1"></use></g><g><use xlink:href="#j13IIpcheC" opacity="1" fill="#000000" fill-opacity="1"></use></g><g><use xlink:href="#ayFFQ8tj3" opacity="1" fill="#fff000" fill-opacity="1"></use></g><g><use xlink:href="#f2a7r0n6YM" opacity="1" fill="#000000" fill-opacity="1"></use></g></g></g></svg>