<?xml version="1.0" encoding="UTF-8" standalone="no"?>
<!DOCTYPE svg PUBLIC "-//W3C//DTD SVG 1.1//EN" "http://www.w3.org/Graphics/SVG/1.1/DTD/svg11.dtd">
<svg version="1.1" xmlns="http://www.w3.org/2000/svg" xmlns:xlink="http://www.w3.org/1999/xlink" preserveAspectRatio="xMidYMid meet" viewBox="0 0 640 640" width="640" height="640"><defs><path d="M180 286.39L520 286.39L520 438.3L180 438.3L180 286.39Z" id="bqvPQ8y4X"></path><path d="M547.14 252.5C547.14 283.25 458.81 308.21 350 308.21C241.19 308.21 152.86 283.25 152.86 252.5C152.86 221.75 241.19 196.79 350 196.79C458.81 196.79 547.14 221.75 547.14 252.5Z" id="bYFDRy2zb"></path><path d="M590 150L329.43 243.86L552.56 299.67L590 150Z" id="d133srMfQH"></path><path d="M542.18 235.16L450.8 253.26L489.14 446.83L580.52 428.74L542.18 235.16Z" id="k1kNIraMd4"></path><path d="M155.58 239L246.95 257.1L209.51 446.15L118.13 428.05L155.58 239Z" id="l3gRWaa2G"></path><path d="M286.43 335C286.43 354.32 270.11 370 250 370C229.89 370 213.57 354.32 213.57 335C213.57 315.68 229.89 300 250 300C270.11 300 286.43 315.68 286.43 335Z" id="a3gfl9a4i"></path><path d="M486.43 335C486.43 354.32 470.11 370 450 370C429.89 370 413.57 354.32 413.57 335C413.57 315.68 429.89 300 450 300C470.11 300 486.43 315.68 486.43 335Z" id="b2wFBBXUw"></path><path d="M110 150L370.57 243.86L147.44 299.67L110 150Z" id="a27T08DvoM"></path><path d="M465.49 481.8L580.97 427.13L350 427.13L119.03 427.13L234.5 481.8L350 536.47L465.49 481.8Z" id="aGEQJeIui"></path><path d="M173.54 197.24L217.07 217.48L185.49 243.74L153.91 270L141.95 223.51L130 177.01L173.54 197.24Z" id="bosgTBk4z"></path><path d="M526.46 197.24L482.93 217.48L514.51 243.74L546.09 270L558.05 223.51L570 177.01L526.46 197.24Z" id="aoTPgpEfU"></path><path d="M365 420L380 395L350 395L320 395L335 420L350 445L365 420Z" id="b7vBXLvf8"></path><path d="M280 336.07C280 352.04 267.2 365 251.43 365C235.66 365 222.86 352.04 222.86 336.07C222.86 320.11 235.66 307.14 251.43 307.14C267.2 307.14 280 320.11 280 336.07Z" id="fKjHI6ZKO"></path><path d="M477.14 336.07C477.14 352.04 464.34 365 448.57 365C432.8 365 420 352.04 420 336.07C420 320.11 432.8 307.14 448.57 307.14C464.34 307.14 477.14 320.11 477.14 336.07Z" id="a1MjKsV5E6"></path></defs><g><g><g><use xlink:href="#bqvPQ8y4X" opacity="1" fill="#000000" fill-opacity="1"></use></g><g><use xlink:href="#bYFDRy2zb" opacity="1" fill="#000000" fill-opacity="1"></use></g><g><use xlink:href="#d133srMfQH" opacity="1" fill="#000000" fill-opacity="1"></use></g><g><use xlink:href="#k1kNIraMd4" opacity="1" fill="#000000" fill-opacity="1"></use></g><g><use xlink:href="#l3gRWaa2G" opacity="1" fill="#000000" fill-opacity="1"></use></g><g><use xlink:href="#a3gfl9a4i" opacity="1" fill="#8f9000" fill-opacity="1"></use></g><g><use xlink:href="#b2wFBBXUw" opacity="1" fill="#878c24" fill-opacity="1"></use></g><g><use xlink:href="#a27T08DvoM" opacity="1" fill="#000000" fill-opacity="1"></use></g><g><use xlink:href="#aGEQJeIui" opacity="1" fill="#000000" fill-opacity="1"></use></g><g><use xlink:href="#bosgTBk4z" opacity="1" fill="#303030" fill-opacity="1"></use></g><g><use xlink:href="#aoTPgpEfU" opacity="1" fill="#303030" fill-opacity="1"></use></g><g><use xlink:href="#b7vBXLvf8" opacity="1" fill="#858585" fill-opacity="0.32"></use></g><g><use xlink:href="#fKjHI6ZKO" opacity="1" fill="#000000" fill-opacity="1"></use></g><g><use xlink:href="#a1MjKsV5E6" opacity="1" fill="#000000" fill-opacity="1"></use></g></g></g></svg>